<svg xmlns="http://www.w3.org/2000/svg">
  <symbol id="back" viewBox="0 0 24 24"><path d="M15 5l-7 7 7 7M8 12h12"/></symbol>
  <symbol id="fish" viewBox="0 0 24 24"><path d="M4 12c3-5 9-7 14-3l3-3v12l-3-3c-5 4-11 2-14-3z"/><circle cx="15" cy="10" r="1"/></symbol>
  <symbol id="lotus" viewBox="0 0 24 24"><path d="M12 19c-5 0-8-3-8-7 4 0 7 2 8 7zm0 0c5 0 8-3 8-7-4 0-7 2-8 7zm0-1c-4-3-4-8 0-12 4 4 4 9 0 12zM3 20h18"/></symbol>
  <symbol id="sound" viewBox="0 0 24 24"><path d="M5 9v6h4l5 4V5L9 9H5zm12-1c2 2 2 6 0 8m3-11c4 4 4 10 0 14"/></symbol>
  <symbol id="bait" viewBox="0 0 24 24"><path d="M8 18c-4-1-3-6 0-6 4 0 2-7 7-7 5 0 5 8 1 9-3 1-3 5-7 5"/><circle cx="16" cy="9" r="1"/></symbol>
  <symbol id="exit" viewBox="0 0 24 24"><path d="M10 5H5v14h5m4-4 4-3-4-3m4 3H9"/></symbol>
  <symbol id="star" viewBox="0 0 24 24"><path d="M12 3l2.8 5.7 6.2.9-4.5 4.4 1.1 6.2-5.6-3-5.6 3 1.1-6.2L3 9.6l6.2-.9L12 3z"/></symbol>
  <symbol id="hand" viewBox="0 0 24 24"><path d="M8 12V7a2 2 0 014 0v4-7a2 2 0 014 0v7-5a2 2 0 014 0v7-3a2 2 0 014 0v5c0 4-3 7-7 7h-1c-3 0-5-2-7-5l-2-3a2 2 0 013-2l2 2"/></symbol>
  <symbol id="spark" viewBox="0 0 24 24"><path d="M12 2l1.5 6.5L20 10l-6.5 1.5L12 18l-1.5-6.5L4 10l6.5-1.5L12 2zm7 14l.7 2.3L22 19l-2.3.7L19 22l-.7-2.3L16 19l2.3-.7L19 16z"/></symbol>
  <symbol id="flower" viewBox="0 0 24 24"><path d="M12 12c-5-2-5-8-1-9 3-1 4 3 1 9zm0 0c2-5 8-5 9-1 1 3-3 4-9 1zm0 0c5 2 5 8 1 9-3 1-4-3-1-9zm0 0c-2 5-8 5-9 1-1-3 3-4 9-1z"/></symbol>
</svg>
